<?xml version="1.0" standalone="yes"?>

<svg version="1.1" viewBox="0.0 0.0 960.0 720.0" fill="none" stroke="none" stroke-linecap="square" stroke-miterlimit="10" xmlns="http://www.w3.org/2000/svg" xmlns:xlink="http://www.w3.org/1999/xlink"><clipPath id="p.0"><path d="m0 0l960.0 0l0 720.0l-960.0 0l0 -720.0z" clip-rule="nonzero"></path></clipPath><g clip-path="url(#p.0)"><path fill="#000000" fill-opacity="0.0" d="m0 0l960.0 0l0 720.0l-960.0 0z" fill-rule="evenodd"></path><defs><radialGradient id="p.1" gradientUnits="userSpaceOnUse" gradientTransform="matrix(19.83445678240315 0.0 0.0 -19.83445678240315 0.0 0.0)" spreadMethod="pad" cx="24.20030985803701" cy="-18.15023239352776" fx="24.20030985803701" fy="-18.15023239352776" r="19.834457397460938"><stop offset="0.0" stop-color="#dcecd5"></stop><stop offset="1.0" stop-color="#93bc81"></stop></radialGradient></defs><path fill="url(#p.1)" d="m321.35565 720.0l317.2887 0l-63.457764 -720.0l-190.3732 0z" fill-rule="evenodd"></path><path stroke="#38761d" stroke-width="3.0" stroke-linejoin="round" stroke-linecap="butt" d="m321.35565 720.0l317.2887 0l-63.457764 -720.0l-190.3732 0z" fill-rule="evenodd"></path><defs><radialGradient id="p.2" gradientUnits="userSpaceOnUse" gradientTransform="matrix(0.0 7.690795137529079 7.690795137529079 0.0 0.0 0.0)" spreadMethod="pad" cx="43.80111108858722" cy="62.41261349781128" fx="43.80111108858722" fy="62.41261349781128" r="7.690794944763184"><stop offset="0.0" stop-color="#ff00ff"></stop><stop offset="1.0" stop-color="#9180bb"></stop></radialGradient></defs><path fill="url(#p.2)" d="m431.18896 314.59677l0 55.67148c0 -6.149292 21.854614 -11.134277 48.81366 -11.134277c26.959045 0 48.81366 4.9849854 48.81366 11.134277l0 -55.67148l0 0c0 -6.149292 -21.854614 -11.134277 -48.81366 -11.134277c-26.959045 0 -48.81366 4.9849854 -48.81366 11.134277z" fill-rule="evenodd"></path><path stroke="#38761d" stroke-width="3.0" stroke-linejoin="round" stroke-linecap="butt" d="m431.18896 314.59677l0 55.67148c0 -6.149292 21.854614 -11.134277 48.81366 -11.134277c26.959045 0 48.81366 4.9849854 48.81366 11.134277l0 -55.67148l0 0c0 -6.149292 -21.854614 -11.134277 -48.81366 -11.134277c-26.959045 0 -48.81366 4.9849854 -48.81366 11.134277z" fill-rule="evenodd"></path><defs><radialGradient id="p.3" gradientUnits="userSpaceOnUse" gradientTransform="matrix(0.0 7.46215984553852 7.46215984553852 0.0 0.0 0.0)" spreadMethod="pad" cx="32.18319798658831" cy="64.32489176661541" fx="32.18319798658831" fy="64.32489176661541" r="7.462159633636475"><stop offset="0.0" stop-color="#ff00ff"></stop><stop offset="1.0" stop-color="#9180bb"></stop></radialGradient></defs><path fill="url(#p.3)" d="m431.18896 222.29353l0 44.6566c0 -4.9326477 21.854614 -8.931335 48.81366 -8.931335c26.959045 0 48.81366 3.9986877 48.81366 8.931335l0 -44.6566l0 0c0 -4.9326324 -21.854614 -8.931335 -48.81366 -8.931335c-26.959045 0 -48.81366 3.998703 -48.81366 8.931335z" fill-rule="evenodd"></path><path stroke="#38761d" stroke-width="3.0" stroke-linejoin="round" stroke-linecap="butt" d="m431.18896 222.29353l0 44.6566c0 -4.9326477 21.854614 -8.931335 48.81366 -8.931335c26.959045 0 48.81366 3.9986877 48.81366 8.931335l0 -44.6566l0 0c0 -4.9326324 -21.854614 -8.931335 -48.81366 -8.931335c-26.959045 0 -48.81366 3.998703 -48.81366 8.931335z" fill-rule="evenodd"></path><defs><radialGradient id="p.4" gradientUnits="userSpaceOnUse" gradientTransform="matrix(0.0 8.265442466379294 8.265442466379294 0.0 0.0 0.0)" spreadMethod="pad" cx="55.249167015995226" cy="58.073433619787274" fx="55.249167015995226" fy="58.073433619787274" r="8.265442848205566"><stop offset="0.0" stop-color="#ff00ff"></stop><stop offset="1.0" stop-color="#9180bb"></stop></radialGradient></defs><path fill="url(#p.4)" d="m431.18896 424.79443l0 79.66098c0 -8.799133 21.854614 -15.93222 48.81366 -15.93222c26.959045 0 48.81366 7.133087 48.81366 15.93222l0 -79.66098l0 0c0 -8.799133 -21.854614 -15.93222 -48.81366 -15.93222c-26.959045 0 -48.81366 7.133087 -48.81366 15.93222z" fill-rule="evenodd"></path><path stroke="#38761d" stroke-width="3.0" stroke-linejoin="round" stroke-linecap="butt" d="m431.18896 424.79443l0 79.66098c0 -8.799133 21.854614 -15.93222 48.81366 -15.93222c26.959045 0 48.81366 7.133087 48.81366 15.93222l0 -79.66098l0 0c0 -8.799133 -21.854614 -15.93222 -48.81366 -15.93222c-26.959045 0 -48.81366 7.133087 -48.81366 15.93222z" fill-rule="evenodd"></path><defs><radialGradient id="p.5" gradientUnits="userSpaceOnUse" gradientTransform="matrix(0.0 8.527469436483338 8.527469436483338 0.0 0.0 0.0)" spreadMethod="pad" cx="70.0033516292489" cy="56.28898795647846" fx="70.0033516292489" fy="56.28898795647846" r="8.527469635009766"><stop offset="0.0" stop-color="#ff00ff"></stop><stop offset="1.0" stop-color="#9180bb"></stop></radialGradient></defs><path fill="url(#p.5)" d="m431.18896 561.0188l0 89.831604c0 -9.922546 21.854614 -17.966309 48.81366 -17.966309c26.959045 0 48.81366 8.043762 48.81366 17.966309l0 -89.831604l0 0c0 -9.922485 -21.854614 -17.966309 -48.81366 -17.966309c-26.959045 0 -48.81366 8.043823 -48.81366 17.966309z" fill-rule="evenodd"></path><path stroke="#38761d" stroke-width="3.0" stroke-linejoin="round" stroke-linecap="butt" d="m431.18896 561.0188l0 89.831604c0 -9.922546 21.854614 -17.966309 48.81366 -17.966309c26.959045 0 48.81366 8.043762 48.81366 17.966309l0 -89.831604l0 0c0 -9.922485 -21.854614 -17.966309 -48.81366 -17.966309c-26.959045 0 -48.81366 8.043823 -48.81366 17.966309z" fill-rule="evenodd"></path><defs><radialGradient id="p.6" gradientUnits="userSpaceOnUse" gradientTransform="matrix(0.0 7.100589674715371 7.100589674715371 0.0 0.0 0.0)" spreadMethod="pad" cx="22.22080796956777" cy="67.60020429115504" fx="22.22080796956777" fy="67.60020429115504" r="7.100589752197266"><stop offset="0.0" stop-color="#ff00ff"></stop><stop offset="1.0" stop-color="#9180bb"></stop></radialGradient></defs><path fill="url(#p.6)" d="m435.25592 142.2909l0 38.724854c0 -4.2774353 20.033173 -7.7449646 44.74539 -7.7449646c24.71222 0 44.74539 3.4675293 44.74539 7.7449646l0 -38.724854l0 0c0 -4.27742 -20.033173 -7.7449646 -44.74539 -7.7449646c-24.71222 0 -44.74539 3.4675446 -44.74539 7.7449646z" fill-rule="evenodd"></path><path stroke="#38761d" stroke-width="3.0" stroke-linejoin="round" stroke-linecap="butt" d="m435.25592 142.2909l0 38.724854c0 -4.2774353 20.033173 -7.7449646 44.74539 -7.7449646c24.71222 0 44.74539 3.4675293 44.74539 7.7449646l0 -38.724854l0 0c0 -4.27742 -20.033173 -7.7449646 -44.74539 -7.7449646c-24.71222 0 -44.74539 3.4675446 -44.74539 7.7449646z" fill-rule="evenodd"></path><defs><radialGradient id="p.7" gradientUnits="userSpaceOnUse" gradientTransform="matrix(0.0 6.779034126093685 6.779034126093685 0.0 0.0 0.0)" spreadMethod="pad" cx="11.700425728280381" cy="70.80654718788463" fx="11.700425728280381" fy="70.80654718788463" r="6.77903413772583"><stop offset="0.0" stop-color="#ff00ff"></stop><stop offset="1.0" stop-color="#9180bb"></stop></radialGradient></defs><path fill="url(#p.7)" d="m438.30447 66.43569l0 32.204727c0 -3.5572357 18.667725 -6.440941 41.695526 -6.440941c23.027802 0 41.695557 2.8837051 41.695557 6.440941l0 -32.204727l0 0c0 -3.557232 -18.667755 -6.440941 -41.695557 -6.440941c-23.027802 0 -41.695526 2.883709 -41.695526 6.440941z" fill-rule="evenodd"></path><path stroke="#38761d" stroke-width="3.0" stroke-linejoin="round" stroke-linecap="butt" d="m438.30447 66.43569l0 32.204727c0 -3.5572357 18.667725 -6.440941 41.695526 -6.440941c23.027802 0 41.695557 2.8837051 41.695557 6.440941l0 -32.204727l0 0c0 -3.557232 -18.667755 -6.440941 -41.695557 -6.440941c-23.027802 0 -41.695526 2.883709 -41.695526 6.440941z" fill-rule="evenodd"></path><path fill="#000000" fill-opacity="0.0" d="m732.20306 690.4964c-17.143433 -51.94104 -86.49664 -201.48071 -102.86072 -311.64612c-16.364136 -110.165405 3.8966675 -291.12195 4.6760254 -349.34634" fill-rule="evenodd"></path><path stroke="#c27ba0" stroke-width="3.0" stroke-linejoin="round" stroke-linecap="butt" d="m732.20306 690.4964c-17.143433 -51.94104 -86.49664 -201.48071 -102.86072 -311.64612c-16.364136 -110.165405 3.8966675 -291.12195 4.6760254 -349.34634" fill-rule="evenodd"></path><path fill="#000000" fill-opacity="0.0" d="m239.70384 690.4964c15.280548 -51.94104 77.09743 -201.48071 91.683334 -311.64612c14.585907 -110.165405 -3.4732666 -291.12195 -4.1679077 -349.34634" fill-rule="evenodd"></path><path stroke="#c27ba0" stroke-width="3.0" stroke-linejoin="round" stroke-linecap="butt" d="m239.70384 690.4964c15.280548 -51.94104 77.09743 -201.48071 91.683334 -311.64612c14.585907 -110.165405 -3.4732666 -291.12195 -4.1679077 -349.34634" fill-rule="evenodd"></path></g></svg>

